<mxfile host="app.diagrams.net" modified="2022-08-28T14:27:58.714Z" agent="5.0 (Macintosh; Intel Mac OS X 10_15_7) AppleWebKit/537.36 (KHTML, like Gecko) Chrome/104.0.0.0 Safari/537.36" etag="GgA49H-1MrIPOoqRPL-F" version="17.5.1" type="github">
  <diagram name="LocalCluster" id="0783ab3e-0a74-02c8-0abd-f7b4e66b4bec">
    <mxGraphModel dx="946" dy="646" grid="1" gridSize="10" guides="1" tooltips="1" connect="1" arrows="1" fold="1" page="1" pageScale="1" pageWidth="850" pageHeight="1100" background="none" math="0" shadow="0">
      <root>
        <mxCell id="0" />
        <mxCell id="1" parent="0" />
        <mxCell id="IDWX3KP-84P4_elMJV3M-65" value="LocalCluster Startup Chart" style="swimlane;html=1;childLayout=stackLayout;startSize=20;rounded=0;shadow=0;comic=0;labelBackgroundColor=none;strokeWidth=1;fontFamily=Verdana;fontSize=12;align=center;" vertex="1" parent="1">
          <mxGeometry x="40" y="20" width="1250" height="420" as="geometry">
            <mxRectangle x="40" y="20" width="60" height="20" as="alternateBounds" />
          </mxGeometry>
        </mxCell>
        <mxCell id="IDWX3KP-84P4_elMJV3M-66" value="mars/deploy/oscar/local.py::LocalCluster" style="swimlane;html=1;startSize=20;" vertex="1" parent="IDWX3KP-84P4_elMJV3M-65">
          <mxGeometry y="20" width="250" height="400" as="geometry">
            <mxRectangle y="20" width="30" height="970" as="alternateBounds" />
          </mxGeometry>
        </mxCell>
        <mxCell id="IDWX3KP-84P4_elMJV3M-67" value="LocalCluster::__init__" style="rounded=0;whiteSpace=wrap;html=1;" vertex="1" parent="IDWX3KP-84P4_elMJV3M-66">
          <mxGeometry x="40" y="40" width="170" height="40" as="geometry" />
        </mxCell>
        <mxCell id="IDWX3KP-84P4_elMJV3M-68" value="" style="html=1;entryX=0;entryY=0.5;entryDx=0;entryDy=0;exitX=0.171;exitY=1;exitDx=0;exitDy=0;edgeStyle=orthogonalEdgeStyle;exitPerimeter=0;" edge="1" parent="IDWX3KP-84P4_elMJV3M-66" source="IDWX3KP-84P4_elMJV3M-69" target="IDWX3KP-84P4_elMJV3M-70">
          <mxGeometry relative="1" as="geometry" />
        </mxCell>
        <mxCell id="IDWX3KP-84P4_elMJV3M-69" value="LocalCluster::start" style="rounded=0;whiteSpace=wrap;html=1;" vertex="1" parent="IDWX3KP-84P4_elMJV3M-66">
          <mxGeometry x="40" y="120" width="170" height="40" as="geometry" />
        </mxCell>
        <mxCell id="IDWX3KP-84P4_elMJV3M-70" value="_start_supervisor_pool" style="rounded=0;whiteSpace=wrap;html=1;" vertex="1" parent="IDWX3KP-84P4_elMJV3M-66">
          <mxGeometry x="90" y="200" width="140" height="40" as="geometry" />
        </mxCell>
        <mxCell id="IDWX3KP-84P4_elMJV3M-71" value="_start_worker_pool" style="rounded=0;whiteSpace=wrap;html=1;" vertex="1" parent="IDWX3KP-84P4_elMJV3M-66">
          <mxGeometry x="90" y="320" width="140" height="40" as="geometry" />
        </mxCell>
        <mxCell id="IDWX3KP-84P4_elMJV3M-72" value="" style="html=1;entryX=0;entryY=0.5;entryDx=0;entryDy=0;exitX=0.171;exitY=1.075;exitDx=0;exitDy=0;edgeStyle=orthogonalEdgeStyle;exitPerimeter=0;" edge="1" parent="IDWX3KP-84P4_elMJV3M-66" source="IDWX3KP-84P4_elMJV3M-69" target="IDWX3KP-84P4_elMJV3M-71">
          <mxGeometry relative="1" as="geometry">
            <mxPoint x="79.06999999999994" y="170" as="sourcePoint" />
            <mxPoint x="100" y="230" as="targetPoint" />
          </mxGeometry>
        </mxCell>
        <mxCell id="IDWX3KP-84P4_elMJV3M-73" value="mars/deploy/oscar/pool.py" style="swimlane;html=1;startSize=20;" vertex="1" parent="IDWX3KP-84P4_elMJV3M-65">
          <mxGeometry x="250" y="20" width="250" height="400" as="geometry">
            <mxRectangle x="250" y="20" width="30" height="970" as="alternateBounds" />
          </mxGeometry>
        </mxCell>
        <mxCell id="IDWX3KP-84P4_elMJV3M-74" value="create_supervisor_actor_pool" style="rounded=0;whiteSpace=wrap;html=1;" vertex="1" parent="IDWX3KP-84P4_elMJV3M-73">
          <mxGeometry x="40" y="200" width="170" height="40" as="geometry" />
        </mxCell>
        <mxCell id="IDWX3KP-84P4_elMJV3M-75" value="create_worker_actor_pool" style="rounded=0;whiteSpace=wrap;html=1;" vertex="1" parent="IDWX3KP-84P4_elMJV3M-73">
          <mxGeometry x="40" y="320" width="170" height="40" as="geometry" />
        </mxCell>
        <mxCell id="IDWX3KP-84P4_elMJV3M-76" value="mars/oscar/api.py" style="swimlane;html=1;startSize=20;" vertex="1" parent="IDWX3KP-84P4_elMJV3M-65">
          <mxGeometry x="500" y="20" width="250" height="400" as="geometry">
            <mxRectangle x="500" y="20" width="30" height="970" as="alternateBounds" />
          </mxGeometry>
        </mxCell>
        <mxCell id="IDWX3KP-84P4_elMJV3M-77" value="create_actor_pool" style="rounded=0;whiteSpace=wrap;html=1;" vertex="1" parent="IDWX3KP-84P4_elMJV3M-76">
          <mxGeometry x="40" y="200" width="170" height="40" as="geometry" />
        </mxCell>
        <mxCell id="IDWX3KP-84P4_elMJV3M-78" value="create_actor_pool" style="rounded=0;whiteSpace=wrap;html=1;" vertex="1" parent="IDWX3KP-84P4_elMJV3M-76">
          <mxGeometry x="40" y="320" width="170" height="40" as="geometry" />
        </mxCell>
        <mxCell id="IDWX3KP-84P4_elMJV3M-79" value="" style="edgeStyle=orthogonalEdgeStyle;html=1;" edge="1" parent="IDWX3KP-84P4_elMJV3M-65" source="IDWX3KP-84P4_elMJV3M-70" target="IDWX3KP-84P4_elMJV3M-74">
          <mxGeometry relative="1" as="geometry" />
        </mxCell>
        <mxCell id="IDWX3KP-84P4_elMJV3M-80" value="" style="edgeStyle=orthogonalEdgeStyle;html=1;" edge="1" parent="IDWX3KP-84P4_elMJV3M-65" source="IDWX3KP-84P4_elMJV3M-74" target="IDWX3KP-84P4_elMJV3M-77">
          <mxGeometry relative="1" as="geometry" />
        </mxCell>
        <mxCell id="IDWX3KP-84P4_elMJV3M-81" value="mars/oscar/backends/mars/backend.py" style="swimlane;html=1;startSize=20;" vertex="1" parent="IDWX3KP-84P4_elMJV3M-65">
          <mxGeometry x="750" y="20" width="250" height="400" as="geometry">
            <mxRectangle x="750" y="20" width="30" height="970" as="alternateBounds" />
          </mxGeometry>
        </mxCell>
        <mxCell id="IDWX3KP-84P4_elMJV3M-82" value="MarsActorBackend::create_actor_pool" style="rounded=0;whiteSpace=wrap;html=1;" vertex="1" parent="IDWX3KP-84P4_elMJV3M-81">
          <mxGeometry x="15" y="200" width="220" height="40" as="geometry" />
        </mxCell>
        <mxCell id="IDWX3KP-84P4_elMJV3M-83" value="MarsActorBackend::create_actor_pool" style="rounded=0;whiteSpace=wrap;html=1;" vertex="1" parent="IDWX3KP-84P4_elMJV3M-81">
          <mxGeometry x="15" y="320" width="220" height="40" as="geometry" />
        </mxCell>
        <mxCell id="IDWX3KP-84P4_elMJV3M-84" value="" style="edgeStyle=orthogonalEdgeStyle;html=1;" edge="1" parent="IDWX3KP-84P4_elMJV3M-65" source="IDWX3KP-84P4_elMJV3M-77" target="IDWX3KP-84P4_elMJV3M-82">
          <mxGeometry relative="1" as="geometry" />
        </mxCell>
        <mxCell id="IDWX3KP-84P4_elMJV3M-85" value="" style="edgeStyle=orthogonalEdgeStyle;html=1;" edge="1" parent="IDWX3KP-84P4_elMJV3M-65" source="IDWX3KP-84P4_elMJV3M-71" target="IDWX3KP-84P4_elMJV3M-75">
          <mxGeometry relative="1" as="geometry" />
        </mxCell>
        <mxCell id="IDWX3KP-84P4_elMJV3M-86" value="" style="edgeStyle=orthogonalEdgeStyle;html=1;" edge="1" parent="IDWX3KP-84P4_elMJV3M-65" source="IDWX3KP-84P4_elMJV3M-75" target="IDWX3KP-84P4_elMJV3M-78">
          <mxGeometry relative="1" as="geometry" />
        </mxCell>
        <mxCell id="IDWX3KP-84P4_elMJV3M-87" value="" style="edgeStyle=orthogonalEdgeStyle;html=1;" edge="1" parent="IDWX3KP-84P4_elMJV3M-65" source="IDWX3KP-84P4_elMJV3M-78" target="IDWX3KP-84P4_elMJV3M-83">
          <mxGeometry relative="1" as="geometry" />
        </mxCell>
        <mxCell id="IDWX3KP-84P4_elMJV3M-88" value="&lt;span&gt;&lt;b&gt;mars/oscar/backends/pool.py&lt;/b&gt;&lt;/span&gt;" style="swimlane;html=1;startSize=20;fontStyle=0" vertex="1" parent="1">
          <mxGeometry x="1040" y="40" width="250" height="400" as="geometry">
            <mxRectangle x="1040" y="40" width="30" height="970" as="alternateBounds" />
          </mxGeometry>
        </mxCell>
        <mxCell id="IDWX3KP-84P4_elMJV3M-89" value="create_actor_pool" style="rounded=0;whiteSpace=wrap;html=1;" vertex="1" parent="IDWX3KP-84P4_elMJV3M-88">
          <mxGeometry x="15" y="200" width="220" height="40" as="geometry" />
        </mxCell>
        <mxCell id="IDWX3KP-84P4_elMJV3M-90" value="MainActorPool" style="text;html=1;align=center;verticalAlign=middle;resizable=0;points=[];autosize=1;strokeColor=none;fillColor=none;" vertex="1" parent="IDWX3KP-84P4_elMJV3M-88">
          <mxGeometry x="80" y="240" width="90" height="20" as="geometry" />
        </mxCell>
        <mxCell id="IDWX3KP-84P4_elMJV3M-91" value="create_actor_pool" style="rounded=0;whiteSpace=wrap;html=1;" vertex="1" parent="IDWX3KP-84P4_elMJV3M-88">
          <mxGeometry x="15" y="320" width="220" height="40" as="geometry" />
        </mxCell>
        <mxCell id="IDWX3KP-84P4_elMJV3M-92" value="MainActorPool" style="text;html=1;align=center;verticalAlign=middle;resizable=0;points=[];autosize=1;strokeColor=none;fillColor=none;" vertex="1" parent="IDWX3KP-84P4_elMJV3M-88">
          <mxGeometry x="80" y="360" width="90" height="20" as="geometry" />
        </mxCell>
        <mxCell id="IDWX3KP-84P4_elMJV3M-93" value="" style="edgeStyle=orthogonalEdgeStyle;html=1;" edge="1" parent="1" source="IDWX3KP-84P4_elMJV3M-82" target="IDWX3KP-84P4_elMJV3M-89">
          <mxGeometry relative="1" as="geometry" />
        </mxCell>
        <mxCell id="IDWX3KP-84P4_elMJV3M-94" value="" style="edgeStyle=orthogonalEdgeStyle;html=1;" edge="1" parent="1" source="IDWX3KP-84P4_elMJV3M-83" target="IDWX3KP-84P4_elMJV3M-91">
          <mxGeometry relative="1" as="geometry" />
        </mxCell>
        <mxCell id="IDWX3KP-84P4_elMJV3M-95" value="mars/deploy/oscar/service.py" style="swimlane;html=1;startSize=20;" vertex="1" parent="1">
          <mxGeometry x="290" y="440" width="250" height="240" as="geometry">
            <mxRectangle x="250" y="20" width="30" height="970" as="alternateBounds" />
          </mxGeometry>
        </mxCell>
        <mxCell id="IDWX3KP-84P4_elMJV3M-96" value="start_supervisor" style="rounded=0;whiteSpace=wrap;html=1;" vertex="1" parent="IDWX3KP-84P4_elMJV3M-95">
          <mxGeometry x="40" y="50" width="170" height="40" as="geometry" />
        </mxCell>
        <mxCell id="IDWX3KP-84P4_elMJV3M-97" value="start_worker" style="rounded=0;whiteSpace=wrap;html=1;" vertex="1" parent="IDWX3KP-84P4_elMJV3M-95">
          <mxGeometry x="40" y="170" width="170" height="40" as="geometry" />
        </mxCell>
        <mxCell id="IDWX3KP-84P4_elMJV3M-98" value="mars/services/core.py" style="swimlane;html=1;startSize=20;" vertex="1" parent="1">
          <mxGeometry x="540" y="440" width="250" height="240" as="geometry">
            <mxRectangle x="250" y="20" width="30" height="970" as="alternateBounds" />
          </mxGeometry>
        </mxCell>
        <mxCell id="IDWX3KP-84P4_elMJV3M-99" value="start_services" style="rounded=0;whiteSpace=wrap;html=1;" vertex="1" parent="IDWX3KP-84P4_elMJV3M-98">
          <mxGeometry x="50" y="110" width="170" height="40" as="geometry" />
        </mxCell>
        <mxCell id="IDWX3KP-84P4_elMJV3M-100" value="" style="edgeStyle=orthogonalEdgeStyle;html=1;" edge="1" parent="1" source="IDWX3KP-84P4_elMJV3M-102" target="IDWX3KP-84P4_elMJV3M-96">
          <mxGeometry relative="1" as="geometry" />
        </mxCell>
        <mxCell id="IDWX3KP-84P4_elMJV3M-101" value="" style="edgeStyle=orthogonalEdgeStyle;html=1;entryX=0;entryY=0.5;entryDx=0;entryDy=0;" edge="1" parent="1" source="IDWX3KP-84P4_elMJV3M-102" target="IDWX3KP-84P4_elMJV3M-97">
          <mxGeometry relative="1" as="geometry">
            <mxPoint x="200" y="610" as="targetPoint" />
          </mxGeometry>
        </mxCell>
        <mxCell id="IDWX3KP-84P4_elMJV3M-102" value="_start_service" style="rounded=0;whiteSpace=wrap;html=1;" vertex="1" parent="1">
          <mxGeometry x="130" y="490" width="140" height="40" as="geometry" />
        </mxCell>
        <mxCell id="IDWX3KP-84P4_elMJV3M-103" value="" style="html=1;entryX=0;entryY=0.5;entryDx=0;entryDy=0;exitX=0.171;exitY=1;exitDx=0;exitDy=0;edgeStyle=orthogonalEdgeStyle;exitPerimeter=0;" edge="1" parent="1" source="IDWX3KP-84P4_elMJV3M-69" target="IDWX3KP-84P4_elMJV3M-102">
          <mxGeometry relative="1" as="geometry">
            <mxPoint x="119.06999999999994" y="213" as="sourcePoint" />
            <mxPoint x="140" y="390" as="targetPoint" />
          </mxGeometry>
        </mxCell>
        <mxCell id="IDWX3KP-84P4_elMJV3M-104" value="" style="edgeStyle=orthogonalEdgeStyle;html=1;" edge="1" parent="1" source="IDWX3KP-84P4_elMJV3M-96" target="IDWX3KP-84P4_elMJV3M-99">
          <mxGeometry relative="1" as="geometry">
            <mxPoint x="580" y="510" as="targetPoint" />
          </mxGeometry>
        </mxCell>
        <mxCell id="IDWX3KP-84P4_elMJV3M-105" value="" style="edgeStyle=orthogonalEdgeStyle;html=1;entryX=0.5;entryY=1;entryDx=0;entryDy=0;" edge="1" parent="1" source="IDWX3KP-84P4_elMJV3M-97" target="IDWX3KP-84P4_elMJV3M-99">
          <mxGeometry relative="1" as="geometry">
            <mxPoint x="580" y="630" as="targetPoint" />
          </mxGeometry>
        </mxCell>
      </root>
    </mxGraphModel>
  </diagram>
</mxfile>
